<?xml version="1.0" encoding="utf-8"?>
<!-- Generator: Adobe Illustrator 19.1.0, SVG Export Plug-In . SVG Version: 6.00 Build 0)  -->
<svg version="1.1" id="Layer_1" xmlns="http://www.w3.org/2000/svg" xmlns:xlink="http://www.w3.org/1999/xlink" x="0px" y="0px"
	 viewBox="0 0 371.8 285.3" style="enable-background:new 0 0 371.8 285.3;" xml:space="preserve">
<style type="text/css">
	.st0{fill:url(#SVGID_1_);}
	.st1{fill:#E64A19;}
</style>
<linearGradient id="SVGID_1_" gradientUnits="userSpaceOnUse" x1="66.2232" y1="152.7282" x2="269.0414" y2="152.7282">
	<stop  offset="0" style="stop-color:#E64A19"/>
	<stop  offset="0.9949" style="stop-color:#78270D"/>
</linearGradient>
<path class="st0" d="M243.2,91c0,0-99.1,96.3-177,115.2L187,225.1l82-144.7l-90.3,125.4l-53.9-6.8C124.8,198.9,197.1,137.5,243.2,91
	z"/>
<path class="st1" d="M181.9,242.2L309.1,16.6L209,231.1l78.7,1.2c0,0,47.9-130.3,39.3-232.3c0,0,14.8,141.4-26.4,247.7h-42.4
	c0,0,65.1,20.1,113.7,14.1c0,0-105.3,25.5-135.2,23.4c0,0,12.3-2.5,14.8-15.4c0,0-111.2,14.1-134,5.5l24-6.1c0,0-79.3,0-103.9-15.4
	S0,218.2,0,218.2L181.9,242.2z"/>
</svg>
