<svg xmlns="http://www.w3.org/2000/svg" xmlns:xlink="http://www.w3.org/1999/xlink" id="Layer_1" x="0" y="0" enable-background="new 0 0 274.9 32.9" version="1.1" viewBox="0 0 274.9 32.9" xml:space="preserve"><style type="text/css">.st0{fill:#e64a19}</style><g><path d="M30.7,13.5v3.1c0,9.5-6.9,16.2-15.1,16.2h0C6.9,32.7-0.1,25.7,0,17C0.1,8.4,7.1,1.4,15.7,1.4h0.1 c3.7,0,7,1.3,9.7,3.5l-4.4,4.3c-1.6-1.1-3.4-1.6-5.3-1.7h-0.1c-2.6,0-5,1-6.8,2.8c-1.8,1.8-2.9,4.2-2.9,6.8c0,2.6,1,5,2.7,6.9 c1.8,1.9,4.3,2.9,6.8,2.9c4.4,0,8.2-3.2,9.3-7.2h-6.9v-6.1H30.7z" class="st0"/><path d="M55.5,22.9c0,5.5-4.6,9.9-10.4,9.9c-5.7,0-10.3-4.4-10.3-9.9c0-5.5,4.6-9.9,10.3-9.9 C50.9,13,55.5,17.4,55.5,22.9z M50.1,22.9c0-1.3-0.5-2.6-1.4-3.6c-1-1-2.1-1.5-3.5-1.5c-1.3,0-2.5,0.5-3.4,1.5 c-1,1-1.5,2.3-1.5,3.6c0,1.4,0.5,2.6,1.5,3.6c0.9,1,2.1,1.5,3.4,1.5c1.3,0,2.5-0.5,3.5-1.5C49.6,25.6,50.1,24.2,50.1,22.9z" class="st0"/><path d="M78.8,22.9c0,5.5-4.6,9.9-10.4,9.9c-5.7,0-10.3-4.4-10.3-9.9c0-5.5,4.6-9.9,10.3-9.9 C74.2,13,78.8,17.4,78.8,22.9z M73.3,22.9c0-1.3-0.5-2.6-1.4-3.6c-1-1-2.1-1.5-3.5-1.5c-1.3,0-2.5,0.5-3.4,1.5 c-1,1-1.5,2.3-1.5,3.6c0,1.4,0.5,2.6,1.5,3.6c0.9,1,2.1,1.5,3.4,1.5c1.3,0,2.5-0.5,3.5-1.5C72.9,25.6,73.3,24.2,73.3,22.9z" class="st0"/><path d="M98.5,30.1c-1.8,1.7-4.3,2.8-6.9,2.8c-5.5,0-9.9-4.4-9.9-9.9c0-5.5,4.4-9.9,9.9-9.9c2.7,0,5.2,1.1,6.9,2.8V0 h5.1v32.3h-5.1V30.1z M88.8,26.5c0.9,1,2.1,1.5,3.4,1.5c1.3,0,2.6-0.5,3.5-1.5c0.9-1,1.4-2.3,1.4-3.6c0-1.3-0.5-2.6-1.4-3.6 c-0.9-1-2.2-1.5-3.5-1.5c-1.3,0-2.5,0.5-3.4,1.5c-0.9,1-1.4,2.3-1.4,3.6C87.4,24.3,87.9,25.6,88.8,26.5z" class="st0"/><path d="M143.4,1.9v6.1H135v24.3h-6.1V7.9h-8.5V1.9H143.4z" class="st0"/><path d="M154.1,7.9v24.3H148V1.8h11.9c5,0,9.1,4.1,9.1,9.2c0,3.7-2.2,6.9-5.3,8.3l6,13h-6.5l-5.7-12.2V14h2.3 c1.7,0,3-1.3,3-3c0-1.7-1.3-3.1-3-3.1H154.1z" class="st0"/><path d="M189.3,1.9l14.4,30.4h-6.7l-8.7-18.5l-9.4,18.5H172l15.5-30.4H189.3z" class="st0"/><path d="M211.1,32.3L197.3,1.9h6.7l7.9,17.3l7.9-17.3h6.7l-13.7,30.4H211.1z" class="st0"/><path d="M251.9,7.9h-20.3V1.9h20.3V7.9z M231.6,13.6h16.8v6.1h-16.8V13.6z M231.6,26.2h20.1v6.1h-20.1V26.2z" class="st0"/><path d="M263.6,26.2h11.3v6h-17.4V1.9h6.1V26.2z" class="st0"/></g></svg>