<?xml version="1.0" standalone="no"?>
<!DOCTYPE svg PUBLIC "-//W3C//DTD SVG 20010904//EN"
 "http://www.w3.org/TR/2001/REC-SVG-20010904/DTD/svg10.dtd">
<svg version="1.0" xmlns="http://www.w3.org/2000/svg"
 width="1549.000000pt" height="1549.000000pt" viewBox="0 0 1549.000000 1549.000000"
 preserveAspectRatio="xMidYMid meet">
<metadata>
Created by potrace 1.11, written by Peter Selinger 2001-2013
</metadata>
<g transform="translate(0.000000,1549.000000) scale(0.100000,-0.100000)"
fill="#000000" stroke="none">
<path d="M13631 13524 c0 -11 3 -14 6 -6 3 7 2 16 -1 19 -3 4 -6 -2 -5 -13z"/>
<path d="M13643 13425 c0 -22 2 -30 4 -17 2 12 2 30 0 40 -3 9 -5 -1 -4 -23z"/>
<path d="M13641 13370 c0 -8 4 -22 9 -30 12 -18 12 -2 0 25 -6 13 -9 15 -9 5z"/>
<path d="M13644 13312 c24 -39 24 -1192 1 -1492 -2 -25 -6 -101 -10 -170 -3
-69 -8 -141 -10 -160 -2 -19 -6 -78 -10 -130 -4 -52 -9 -113 -10 -135 -8 -107
-24 -271 -40 -415 -2 -19 -7 -64 -10 -100 -4 -36 -8 -76 -10 -90 -2 -14 -11
-89 -20 -167 -9 -79 -18 -153 -20 -165 -3 -13 -7 -48 -10 -78 -3 -30 -7 -66
-10 -80 -3 -23 -30 -209 -41 -290 -3 -19 -14 -91 -25 -160 -11 -69 -22 -141
-25 -160 -3 -19 -7 -46 -9 -60 -3 -14 -7 -41 -10 -60 -12 -77 -69 -396 -101
-570 -20 -102 -38 -198 -41 -215 -2 -16 -18 -95 -35 -175 -16 -80 -31 -156
-34 -170 -2 -14 -13 -65 -24 -115 -10 -49 -23 -110 -28 -135 -6 -25 -22 -99
-37 -165 -15 -66 -28 -127 -30 -135 -2 -8 -28 -124 -60 -258 -31 -133 -58
-250 -60 -260 -2 -9 -13 -53 -24 -98 -12 -45 -23 -90 -26 -100 -2 -10 -24 -98
-49 -194 -163 -638 -321 -1195 -513 -1810 -62 -201 -312 -949 -323 -970 -11
-20 94 -21 -1525 5 -154 2 -449 7 -655 10 -206 4 -478 8 -605 10 -126 2 -290
5 -363 5 -72 1 -131 5 -129 8 2 4 11 23 20 42 8 19 37 80 62 135 26 55 60 127
75 160 15 33 44 96 65 140 20 44 50 107 65 140 15 33 53 113 84 178 31 65 56
120 56 122 0 2 27 59 59 127 49 102 307 654 438 938 20 41 58 122 85 180 28
58 61 128 73 156 27 59 496 1064 562 1204 25 52 70 149 100 215 31 66 82 176
114 244 33 67 59 124 59 126 0 1 24 54 54 117 70 147 108 228 224 478 16 36
53 115 82 175 29 61 76 162 105 225 29 63 71 153 93 200 38 82 79 168 147 315
18 39 52 111 75 160 23 50 70 151 105 225 68 146 96 207 229 488 47 101 86
185 86 187 0 1 32 68 70 149 39 80 70 148 70 150 0 2 32 70 70 150 39 81 70
148 70 150 0 2 34 74 75 160 41 86 75 158 75 160 0 2 26 59 59 127 32 68 70
149 83 179 14 30 45 96 68 145 24 50 67 141 96 204 30 62 54 115 54 117 0 2
34 74 75 160 41 86 75 157 75 159 0 3 90 196 97 208 2 4 2 7 0 7 -3 0 -30 -44
-60 -97 -148 -264 -330 -587 -376 -667 -28 -49 -51 -90 -51 -92 0 -2 -15 -29
-34 -61 -18 -32 -45 -78 -58 -103 -14 -25 -64 -112 -110 -195 -47 -82 -96
-170 -110 -195 -14 -25 -65 -115 -113 -200 -212 -374 -304 -538 -328 -580 -14
-25 -111 -198 -217 -385 -106 -187 -204 -362 -220 -390 -15 -27 -37 -66 -48
-85 -11 -19 -32 -56 -45 -81 -33 -60 -54 -96 -152 -269 -82 -144 -152 -268
-195 -345 -12 -22 -50 -89 -85 -150 -34 -60 -76 -135 -92 -165 -81 -144 -144
-256 -153 -270 -5 -8 -21 -35 -34 -60 -13 -25 -67 -121 -120 -214 -53 -93 -96
-170 -96 -173 0 -2 -10 -20 -23 -41 -13 -20 -37 -62 -54 -92 -16 -30 -40 -73
-53 -95 -12 -22 -43 -76 -68 -120 -24 -44 -82 -145 -127 -225 -46 -80 -95
-167 -111 -195 -15 -27 -71 -128 -126 -224 -54 -95 -98 -175 -98 -177 0 -2
-13 -25 -29 -52 -15 -26 -39 -68 -53 -93 -14 -24 -103 -181 -198 -349 -95
-168 -188 -333 -206 -367 -19 -34 -47 -83 -62 -110 -16 -26 -31 -55 -35 -63
-5 -8 -13 -24 -20 -35 -10 -17 -120 -210 -187 -330 -13 -22 -50 -89 -84 -148
-34 -60 -70 -125 -82 -145 -11 -21 -32 -57 -46 -82 -14 -25 -57 -101 -95 -170
-39 -69 -80 -142 -92 -162 -11 -21 -31 -55 -42 -75 -52 -91 -166 -295 -207
-368 -24 -44 -48 -84 -52 -90 -4 -5 -18 -30 -32 -55 -27 -50 -207 -371 -223
-398 -5 -10 -50 -88 -98 -174 -75 -134 -91 -156 -109 -153 -12 3 -48 7 -81 10
-33 3 -63 7 -66 9 -3 2 -37 7 -74 11 -37 3 -76 8 -86 10 -10 2 -42 6 -72 10
-30 3 -65 8 -79 10 -14 2 -45 6 -70 10 -25 3 -61 7 -80 10 -19 3 -55 7 -80 10
-25 3 -74 10 -110 15 -36 5 -85 12 -110 15 -25 3 -56 7 -70 9 -34 6 -104 15
-165 21 -27 3 -61 8 -75 10 -14 2 -43 6 -65 9 -89 12 -292 38 -320 41 -16 2
-82 11 -145 19 -63 9 -132 18 -152 21 -87 12 -115 16 -133 19 -11 2 -51 7 -88
11 -37 3 -78 8 -90 11 -12 2 -42 6 -67 9 -25 3 -56 7 -70 10 -14 2 -47 7 -75
10 -62 7 -132 16 -165 21 -14 2 -47 6 -75 9 -27 3 -61 8 -75 10 -26 4 -82 11
-152 20 -24 3 -54 8 -68 10 -14 3 -45 7 -70 10 -25 2 -94 11 -155 19 -60 8
-132 18 -160 21 -62 8 -111 14 -150 20 -16 2 -52 7 -80 10 -27 4 -61 8 -75 11
-14 2 -49 6 -79 10 -30 3 -62 8 -70 9 -9 2 -45 6 -81 10 -36 4 -69 9 -75 10
-19 3 -100 15 -150 20 -27 3 -77 10 -110 15 -33 5 -87 12 -120 15 -33 4 -67 8
-75 10 -8 2 -40 7 -70 10 -30 3 -66 8 -80 10 -25 4 -309 41 -385 51 -22 2 -74
9 -115 15 -127 17 -134 18 -185 24 -27 4 -60 8 -71 10 -12 2 -48 7 -80 10 -33
4 -68 9 -79 11 -11 2 -45 7 -75 10 -30 3 -62 7 -70 9 -8 2 -44 7 -80 10 -36 3
-72 8 -80 10 -8 3 -37 7 -65 10 -27 3 -61 7 -75 9 -14 2 -52 7 -85 11 -33 4
-68 9 -79 11 -10 2 -44 6 -75 9 -31 4 -63 8 -71 10 -8 2 -42 7 -75 11 -33 3
-67 8 -76 9 -9 2 -40 6 -70 9 -53 7 -170 22 -239 32 -19 3 -55 7 -80 10 -25 2
-52 6 -60 9 -8 2 -44 7 -80 10 -36 3 -72 8 -80 10 -8 2 -37 6 -65 10 -81 9
-118 14 -155 19 -39 6 -82 12 -190 25 -41 6 -95 13 -119 17 -41 7 -43 6 -32
-14 21 -40 162 -223 268 -349 338 -402 750 -770 1172 -1047 178 -116 216 -137
362 -199 254 -108 756 -239 1121 -293 16 -2 40 -6 55 -8 188 -31 276 -43 506
-71 20 -3 54 -7 75 -10 35 -4 80 -9 202 -21 30 -3 71 -7 90 -9 19 -2 67 -7
105 -10 39 -3 90 -8 115 -10 88 -9 196 -17 245 -20 93 -5 250 -16 305 -20 30
-2 116 -7 190 -10 74 -4 164 -8 200 -10 95 -6 406 -15 628 -19 106 -2 195 -6
197 -8 3 -2 -321 -89 -425 -113 -8 -2 -96 -25 -195 -50 -99 -26 -188 -48 -197
-50 -9 -2 -45 -11 -79 -21 l-62 -18 36 -12 c41 -14 209 -50 272 -58 38 -5 86
-11 178 -21 254 -27 1055 -27 1582 0 110 5 289 16 350 20 33 2 110 7 170 10
61 3 126 8 145 10 19 3 78 7 130 10 52 3 113 8 135 10 22 2 78 7 125 10 47 3
105 8 130 10 46 4 132 12 230 20 185 16 309 27 335 30 17 2 66 7 110 10 44 4
94 8 110 10 50 6 147 16 200 21 56 4 133 12 185 19 19 3 65 7 102 10 37 3 76
8 87 10 11 2 53 6 93 9 40 4 82 8 93 10 11 2 52 7 90 10 39 4 81 9 95 11 14 2
52 6 85 10 89 9 299 33 345 40 14 2 50 7 80 10 30 3 63 9 74 12 16 4 17 1 11
-29 -46 -216 -193 -414 -388 -519 -72 -39 -165 -79 -184 -79 -7 0 -13 -5 -13
-10 0 -9 370 -6 485 4 22 2 80 7 129 11 49 4 97 8 105 10 9 2 45 6 81 9 64 7
196 23 255 31 383 53 480 67 485 70 3 1 32 6 65 9 33 4 67 9 75 11 8 2 29 6
45 9 54 9 338 57 420 71 80 14 146 27 350 64 61 12 124 23 140 26 17 3 53 10
81 16 28 5 64 12 80 15 16 3 142 28 279 56 138 27 259 52 270 54 11 2 29 6 40
8 42 9 271 57 290 61 11 2 65 13 120 25 55 12 111 24 125 26 36 7 247 53 295
64 22 5 94 21 160 35 182 39 602 134 670 151 33 8 71 17 84 20 12 3 53 12 90
20 36 9 75 18 86 20 11 3 81 20 155 39 131 33 130 35 -10 20 -178 -19 -321
-25 -650 -25 -252 -1 -324 1 -570 15 -104 6 -136 9 -260 20 -36 3 -90 8 -120
11 -57 5 -219 22 -280 29 -63 8 -204 26 -235 30 -16 2 -52 7 -80 11 -27 3 -57
7 -65 9 -8 2 -51 8 -95 15 -44 6 -91 13 -105 16 -43 7 -214 36 -235 39 -25 4
-158 28 -295 54 -112 21 -284 57 -440 91 -52 12 -125 28 -163 36 -180 39 -817
204 -921 238 -32 11 103 13 810 14 467 0 861 1 875 1 24 1 30 12 88 174 34 94
66 181 71 192 13 32 113 334 170 515 81 261 218 755 270 980 31 133 109 474
114 500 2 14 16 81 30 150 15 69 29 136 31 150 3 14 7 36 10 50 3 14 8 41 12
60 4 19 8 37 8 40 1 3 5 28 10 55 10 63 12 78 25 140 11 55 15 81 30 170 5 33
12 71 15 85 5 28 34 210 40 250 6 41 13 86 39 270 26 182 42 303 51 380 3 25
7 61 10 80 11 80 17 127 20 165 5 59 17 157 21 178 2 10 6 48 9 85 3 37 8 83
10 102 3 19 7 64 11 100 3 36 7 81 9 100 1 19 6 69 10 110 3 41 8 95 10 120 4
45 11 130 20 245 2 33 7 89 10 125 3 36 8 106 10 155 3 50 7 119 10 155 4 61
8 132 20 365 39 750 47 1742 20 2580 -3 116 -8 239 -10 275 -2 36 -6 135 -10
220 -4 85 -8 175 -11 200 -2 25 -6 97 -10 160 -3 63 -7 126 -9 140 -2 14 -4
49 -4 78 -1 29 -6 52 -12 52 -5 0 -8 -4 -5 -8z"/>
<path d="M11144 10253 c-28 -38 -65 -90 -84 -118 -19 -27 -36 -52 -40 -55 -3
-3 -39 -52 -80 -110 -41 -58 -83 -117 -95 -131 -11 -14 -27 -36 -35 -49 -8
-12 -37 -53 -65 -91 -82 -113 -196 -270 -674 -934 -59 -82 -156 -217 -216
-300 -59 -82 -152 -211 -205 -285 -53 -74 -146 -203 -206 -286 -60 -84 -201
-279 -313 -435 -112 -156 -221 -306 -241 -334 -41 -55 -337 -466 -382 -530
-15 -22 -74 -104 -130 -182 -57 -78 -110 -151 -118 -163 -8 -12 -36 -50 -61
-84 -25 -33 -89 -122 -142 -196 -53 -74 -155 -216 -227 -315 -71 -99 -182
-252 -245 -340 -63 -88 -121 -168 -128 -177 -9 -12 -24 -16 -48 -13 -71 7
-151 16 -167 20 -10 2 -45 6 -77 10 -33 4 -71 8 -85 10 -14 2 -47 7 -75 10
-66 8 -123 15 -160 21 -16 2 -122 15 -235 29 -113 14 -216 28 -230 30 -14 2
-50 7 -80 10 -30 3 -66 8 -80 10 -14 2 -50 7 -80 10 -106 13 -125 15 -165 20
-22 3 -57 8 -77 10 -100 13 -125 16 -148 20 -14 2 -54 7 -90 10 -36 4 -72 8
-80 10 -14 4 -39 8 -155 21 -27 3 -61 7 -75 9 -14 2 -50 7 -80 10 -30 3 -56 8
-58 9 -1 2 41 41 95 87 54 46 109 93 123 105 43 38 263 227 324 279 33 28 65
55 71 62 7 7 50 44 96 84 46 39 113 97 149 129 36 31 160 139 275 240 116 101
233 204 260 229 28 25 82 73 119 106 38 33 74 65 80 70 6 6 44 39 85 75 41 36
82 72 91 80 10 8 35 31 56 50 21 20 100 89 174 155 74 66 145 129 156 140 12
11 37 34 55 50 19 17 74 66 123 110 50 44 97 87 106 95 9 8 59 53 110 100 91
82 171 155 255 232 22 20 51 46 64 57 13 12 72 65 130 120 58 54 118 109 132
122 29 26 202 186 253 233 49 45 293 274 376 352 41 39 95 90 120 113 44 42
316 302 474 454 180 174 507 499 504 502 -2 2 -39 -31 -83 -73 -88 -84 -275
-258 -315 -292 -21 -18 -160 -143 -194 -175 -6 -5 -69 -61 -141 -124 -71 -62
-157 -137 -190 -166 -33 -29 -76 -65 -95 -81 -19 -16 -37 -31 -40 -34 -23 -25
-546 -460 -735 -612 -33 -27 -73 -59 -90 -73 -733 -593 -1672 -1267 -2390
-1714 -55 -34 -107 -66 -115 -71 -48 -31 -352 -210 -390 -231 -25 -13 -47 -26
-50 -29 -6 -6 -10 -8 -152 -86 -57 -31 -123 -68 -148 -82 -133 -75 -443 -232
-670 -340 -417 -199 -914 -388 -1309 -498 -91 -26 -172 -50 -180 -54 -8 -4 10
-10 45 -15 32 -4 67 -9 79 -11 11 -2 38 -6 60 -9 22 -3 51 -7 65 -10 14 -2 41
-7 60 -10 19 -3 46 -7 60 -10 30 -5 92 -14 140 -21 19 -2 73 -11 120 -19 47
-7 103 -17 125 -20 22 -3 51 -8 65 -10 61 -10 218 -35 250 -39 41 -5 83 -12
200 -31 109 -18 157 -25 200 -31 19 -2 46 -6 60 -9 40 -7 230 -38 315 -50 17
-3 44 -7 60 -9 17 -3 46 -8 65 -11 19 -3 49 -7 65 -9 42 -6 96 -15 195 -31 47
-8 117 -19 155 -25 39 -5 79 -12 90 -14 20 -4 96 -15 145 -22 14 -1 52 -7 85
-13 77 -13 311 -50 350 -56 37 -5 79 -11 225 -35 63 -10 135 -21 160 -25 25
-3 83 -12 130 -20 47 -8 103 -17 125 -20 22 -2 51 -7 65 -9 24 -4 113 -18 440
-70 85 -14 175 -27 200 -31 25 -3 99 -15 165 -25 192 -31 367 -58 410 -64 l40
-6 60 107 c33 59 74 132 91 162 72 130 91 162 159 281 39 69 87 152 105 185
18 33 50 89 70 125 32 55 240 422 315 555 13 22 78 137 145 255 67 118 136
240 152 270 28 50 105 185 135 235 7 11 15 26 19 34 4 8 32 58 62 110 30 53
73 130 97 171 23 41 52 93 64 115 65 114 622 1096 641 1130 12 22 60 106 106
188 147 258 248 436 378 667 70 124 131 232 136 240 5 8 54 94 108 190 55 96
110 193 123 215 68 119 145 257 172 305 17 30 41 72 54 92 13 21 23 40 23 43
0 2 16 29 35 59 19 30 35 58 35 62 0 3 25 49 56 102 71 121 66 112 61 112 -2
0 -26 -30 -53 -67z"/>
</g>
</svg>
