<svg id="Layer_1" xmlns="http://www.w3.org/2000/svg" viewBox="0 0 371.8 285.3"><style>.st0{fill:url(#SVGID_1_)}.st1{fill:#e64a19}</style><linearGradient id="SVGID_1_" gradientUnits="userSpaceOnUse" x1="66.223" y1="152.728" x2="269.041" y2="152.728"><stop offset="0" stop-color="#e64a19"/><stop offset=".995" stop-color="#78270d"/></linearGradient><path class="st0" d="M243.2 91s-99.1 96.3-177 115.2L187 225.1l82-144.7-90.3 125.4-53.9-6.8c0-.1 72.3-61.5 118.4-108z"/><path class="st1" d="M181.9 242.2L309.1 16.6 209 231.1l78.7 1.2S335.6 102 327 0c0 0 14.8 141.4-26.4 247.7h-42.4s65.1 20.1 113.7 14.1c0 0-105.3 25.5-135.2 23.4 0 0 12.3-2.5 14.8-15.4 0 0-111.2 14.1-134 5.5l24-6.1s-79.3 0-103.9-15.4S0 218.2 0 218.2l181.9 24z"/></svg>