<svg id="Layer_1" xmlns="http://www.w3.org/2000/svg" viewBox="0 0 274.9 32.9"><style>.st0{fill:#e64a19}</style><path class="st0" d="M30.7 13.5v3.1c0 9.5-6.9 16.2-15.1 16.2C6.9 32.7-.1 25.7 0 17 .1 8.4 7.1 1.4 15.7 1.4h.1c3.7 0 7 1.3 9.7 3.5l-4.4 4.3c-1.6-1.1-3.4-1.6-5.3-1.7h-.1c-2.6 0-5 1-6.8 2.8C7.1 12.1 6 14.5 6 17.1c0 2.6 1 5 2.7 6.9 1.8 1.9 4.3 2.9 6.8 2.9 4.4 0 8.2-3.2 9.3-7.2h-6.9v-6.1h12.8zM55.5 22.9c0 5.5-4.6 9.9-10.4 9.9-5.7 0-10.3-4.4-10.3-9.9S39.4 13 45.1 13c5.8 0 10.4 4.4 10.4 9.9zm-5.4 0c0-1.3-.5-2.6-1.4-3.6-1-1-2.1-1.5-3.5-1.5-1.3 0-2.5.5-3.4 1.5-1 1-1.5 2.3-1.5 3.6 0 1.4.5 2.6 1.5 3.6.9 1 2.1 1.5 3.4 1.5 1.3 0 2.5-.5 3.5-1.5.9-.9 1.4-2.3 1.4-3.6zM78.8 22.9c0 5.5-4.6 9.9-10.4 9.9-5.7 0-10.3-4.4-10.3-9.9S62.7 13 68.4 13c5.8 0 10.4 4.4 10.4 9.9zm-5.5 0c0-1.3-.5-2.6-1.4-3.6-1-1-2.1-1.5-3.5-1.5-1.3 0-2.5.5-3.4 1.5-1 1-1.5 2.3-1.5 3.6 0 1.4.5 2.6 1.5 3.6.9 1 2.1 1.5 3.4 1.5 1.3 0 2.5-.5 3.5-1.5 1-.9 1.4-2.3 1.4-3.6zM98.5 30.1c-1.8 1.7-4.3 2.8-6.9 2.8-5.5 0-9.9-4.4-9.9-9.9s4.4-9.9 9.9-9.9c2.7 0 5.2 1.1 6.9 2.8V0h5.1v32.3h-5.1v-2.2zm-9.7-3.6c.9 1 2.1 1.5 3.4 1.5 1.3 0 2.6-.5 3.5-1.5.9-1 1.4-2.3 1.4-3.6 0-1.3-.5-2.6-1.4-3.6-.9-1-2.2-1.5-3.5-1.5-1.3 0-2.5.5-3.4 1.5-.9 1-1.4 2.3-1.4 3.6 0 1.4.5 2.7 1.4 3.6zM143.4 1.9V8H135v24.3h-6.1V7.9h-8.5v-6h23zM154.1 7.9v24.3H148V1.8h11.9c5 0 9.1 4.1 9.1 9.2 0 3.7-2.2 6.9-5.3 8.3l6 13h-6.5l-5.7-12.2V14h2.3c1.7 0 3-1.3 3-3s-1.3-3.1-3-3.1h-5.7zM189.3 1.9l14.4 30.4H197l-8.7-18.5-9.4 18.5H172l15.5-30.4h1.8zM211.1 32.3L197.3 1.9h6.7l7.9 17.3 7.9-17.3h6.7l-13.7 30.4h-1.7zM251.9 7.9h-20.3v-6h20.3v6zm-20.3 5.7h16.8v6.1h-16.8v-6.1zm0 12.6h20.1v6.1h-20.1v-6.1zM263.6 26.2h11.3v6h-17.4V1.9h6.1v24.3z"/></svg>