<svg version="1" xmlns="http://www.w3.org/2000/svg" width="2065.333" height="2065.333" viewBox="0 0 1549.000000 1549.000000"><path d="M1363.1 196.6c0 1.1.3 1.4.6.6.3-.7.2-1.6-.1-1.9-.3-.4-.6.2-.5 1.3zM1364.3 206.5c0 2.2.2 3 .4 1.7.2-1.2.2-3 0-4-.3-.9-.5.1-.4 2.3zM1364.1 212c0 .8.4 2.2.9 3 1.2 1.8 1.2.2 0-2.5-.6-1.3-.9-1.5-.9-.5zM1364.4 217.8c2.4 3.9 2.4 119.2.1 149.2-.2 2.5-.6 10.1-1 17-.3 6.9-.8 14.1-1 16-.2 1.9-.6 7.8-1 13s-.9 11.3-1 13.5c-.8 10.7-2.4 27.1-4 41.5-.2 1.9-.7 6.4-1 10-.4 3.6-.8 7.6-1 9-.2 1.4-1.1 8.9-2 16.7-.9 7.9-1.8 15.3-2 16.5-.3 1.3-.7 4.8-1 7.8-.3 3-.7 6.6-1 8-.3 2.3-3 20.9-4.1 29-.3 1.9-1.4 9.1-2.5 16s-2.2 14.1-2.5 16c-.3 1.9-.7 4.6-.9 6-.3 1.4-.7 4.1-1 6-1.2 7.7-6.9 39.6-10.1 57-2 10.2-3.8 19.8-4.1 21.5-.2 1.6-1.8 9.5-3.5 17.5-1.6 8-3.1 15.6-3.4 17-.2 1.4-1.3 6.5-2.4 11.5-1 4.9-2.3 11-2.8 13.5-.6 2.5-2.2 9.9-3.7 16.5s-2.8 12.7-3 13.5c-.2.8-2.8 12.4-6 25.8-3.1 13.3-5.8 25-6 26-.2.9-1.3 5.3-2.4 9.8-1.2 4.5-2.3 9-2.6 10-.2 1-2.4 9.8-4.9 19.4-16.3 63.8-32.1 119.5-51.3 181-6.2 20.1-31.2 94.9-32.3 97-1.1 2 9.4 2.1-152.5-.5-15.4-.2-44.9-.7-65.5-1-20.6-.4-47.8-.8-60.5-1-12.6-.2-29-.5-36.3-.5-7.2-.1-13.1-.5-12.9-.8.2-.4 1.1-2.3 2-4.2.8-1.9 3.7-8 6.2-13.5 2.6-5.5 6-12.7 7.5-16 1.5-3.3 4.4-9.6 6.5-14 2-4.4 5-10.7 6.5-14 1.5-3.3 5.3-11.3 8.4-17.8 3.1-6.5 5.6-12 5.6-12.2 0-.2 2.7-5.9 5.9-12.7 4.9-10.2 30.7-65.4 43.8-93.8 2-4.1 5.8-12.2 8.5-18 2.8-5.8 6.1-12.8 7.3-15.6 2.7-5.9 49.6-106.4 56.2-120.4 2.5-5.2 7-14.9 10-21.5 3.1-6.6 8.2-17.6 11.4-24.4 3.3-6.7 5.9-12.4 5.9-12.6 0-.1 2.4-5.4 5.4-11.7 7-14.7 10.8-22.8 22.4-47.8 1.6-3.6 5.3-11.5 8.2-17.5 2.9-6.1 7.6-16.2 10.5-22.5 2.9-6.3 7.1-15.3 9.3-20 3.8-8.2 7.9-16.8 14.7-31.5 1.8-3.9 5.2-11.1 7.5-16 2.3-5 7-15.1 10.5-22.5 6.8-14.6 9.6-20.7 22.9-48.8 4.7-10.1 8.6-18.5 8.6-18.7 0-.1 3.2-6.8 7-14.9 3.9-8 7-14.8 7-15 0-.2 3.2-7 7-15 3.9-8.1 7-14.8 7-15 0-.2 3.4-7.4 7.5-16s7.5-15.8 7.5-16c0-.2 2.6-5.9 5.9-12.7 3.2-6.8 7-14.9 8.3-17.9 1.4-3 4.5-9.6 6.8-14.5 2.4-5 6.7-14.1 9.6-20.4 3-6.2 5.4-11.5 5.4-11.7 0-.2 3.4-7.4 7.5-16s7.5-15.7 7.5-15.9c0-.3 9-19.6 9.7-20.8.2-.4.2-.7 0-.7-.3 0-3 4.4-6 9.7-14.8 26.4-33 58.7-37.6 66.7-2.8 4.9-5.1 9-5.1 9.2 0 .2-1.5 2.9-3.4 6.1-1.8 3.2-4.5 7.8-5.8 10.3-1.4 2.5-6.4 11.2-11 19.5-4.7 8.2-9.6 17-11 19.5-1.4 2.5-6.5 11.5-11.3 20-21.2 37.4-30.4 53.8-32.8 58-1.4 2.5-11.1 19.8-21.7 38.5s-20.4 36.2-22 39c-1.5 2.7-3.7 6.6-4.8 8.5-1.1 1.9-3.2 5.6-4.5 8.1-3.3 6-5.4 9.6-15.2 26.9-8.2 14.4-15.2 26.8-19.5 34.5-1.2 2.2-5 8.9-8.5 15-3.4 6-7.6 13.5-9.2 16.5-8.1 14.4-14.4 25.6-15.3 27-.5.8-2.1 3.5-3.4 6-1.3 2.5-6.7 12.1-12 21.4-5.3 9.3-9.6 17-9.6 17.3 0 .2-1 2-2.3 4.1-1.3 2-3.7 6.2-5.4 9.2-1.6 3-4 7.3-5.3 9.5-1.2 2.2-4.3 7.6-6.8 12-2.4 4.4-8.2 14.5-12.7 22.5-4.6 8-9.5 16.7-11.1 19.5-1.5 2.7-7.1 12.8-12.6 22.4-5.4 9.5-9.8 17.5-9.8 17.7 0 .2-1.3 2.5-2.9 5.2-1.5 2.6-3.9 6.8-5.3 9.3-1.4 2.4-10.3 18.1-19.8 34.9-9.5 16.8-18.8 33.3-20.6 36.7-1.9 3.4-4.7 8.3-6.2 11-1.6 2.6-3.1 5.5-3.5 6.3-.5.8-1.3 2.4-2 3.5-1 1.7-12 21-18.7 33-1.3 2.2-5 8.9-8.4 14.8-3.4 6-7 12.5-8.2 14.5-1.1 2.1-3.2 5.7-4.6 8.2-1.4 2.5-5.7 10.1-9.5 17-3.9 6.9-8 14.2-9.2 16.2-1.1 2.1-3.1 5.5-4.2 7.5-5.2 9.1-16.6 29.5-20.7 36.8-2.4 4.4-4.8 8.4-5.2 9-.4.5-1.8 3-3.2 5.5-2.7 5-20.7 37.1-22.3 39.8-.5 1-5 8.8-9.8 17.4-7.5 13.4-9.1 15.6-10.9 15.3-1.2-.3-4.8-.7-8.1-1-3.3-.3-6.3-.7-6.6-.9-.3-.2-3.7-.7-7.4-1.1-3.7-.3-7.6-.8-8.6-1-1-.2-4.2-.6-7.2-1-3-.3-6.5-.8-7.9-1-1.4-.2-4.5-.6-7-1-2.5-.3-6.1-.7-8-1-1.9-.3-5.5-.7-8-1-2.5-.3-7.4-1-11-1.5-3.6-.5-8.5-1.2-11-1.5-2.5-.3-5.6-.7-7-.9-3.4-.6-10.4-1.5-16.5-2.1-2.7-.3-6.1-.8-7.5-1-1.4-.2-4.3-.6-6.5-.9-8.9-1.2-29.2-3.8-32-4.1-1.6-.2-8.2-1.1-14.5-1.9-6.3-.9-13.2-1.8-15.2-2.1-8.7-1.2-11.5-1.6-13.3-1.9-1.1-.2-5.1-.7-8.8-1.1-3.7-.3-7.8-.8-9-1.1-1.2-.2-4.2-.6-6.7-.9-2.5-.3-5.6-.7-7-1-1.4-.2-4.7-.7-7.5-1-6.2-.7-13.2-1.6-16.5-2.1-1.4-.2-4.7-.6-7.5-.9-2.7-.3-6.1-.8-7.5-1-2.6-.4-8.2-1.1-15.2-2-2.4-.3-5.4-.8-6.8-1-1.4-.3-4.5-.7-7-1-2.5-.2-9.4-1.1-15.5-1.9-6-.8-13.2-1.8-16-2.1-6.2-.8-11.1-1.4-15-2-1.6-.2-5.2-.7-8-1-2.7-.4-6.1-.8-7.5-1.1-1.4-.2-4.9-.6-7.9-1-3-.3-6.2-.8-7-.9-.9-.2-4.5-.6-8.1-1-3.6-.4-6.9-.9-7.5-1-1.9-.3-10-1.5-15-2-2.7-.3-7.7-1-11-1.5s-8.7-1.2-12-1.5c-3.3-.4-6.7-.8-7.5-1-.8-.2-4-.7-7-1-3-.3-6.6-.8-8-1-2.5-.4-30.9-4.1-38.5-5.1-2.2-.2-7.4-.9-11.5-1.5-12.7-1.7-13.4-1.8-18.5-2.4-2.7-.4-6-.8-7.1-1-1.2-.2-4.8-.7-8-1-3.3-.4-6.8-.9-7.9-1.1-1.1-.2-4.5-.7-7.5-1-3-.3-6.2-.7-7-.9-.8-.2-4.4-.7-8-1-3.6-.3-7.2-.8-8-1-.8-.3-3.7-.7-6.5-1-2.7-.3-6.1-.7-7.5-.9-1.4-.2-5.2-.7-8.5-1.1-3.3-.4-6.8-.9-7.9-1.1-1-.2-4.4-.6-7.5-.9-3.1-.4-6.3-.8-7.1-1-.8-.2-4.2-.7-7.5-1.1-3.3-.3-6.7-.8-7.6-.9-.9-.2-4-.6-7-.9-5.3-.7-17-2.2-23.9-3.2-1.9-.3-5.5-.7-8-1-2.5-.2-5.2-.6-6-.9-.8-.2-4.4-.7-8-1-3.6-.3-7.2-.8-8-1-.8-.2-3.7-.6-6.5-1-8.1-.9-11.8-1.4-15.5-1.9-3.9-.6-8.2-1.2-19-2.5-4.1-.6-9.5-1.3-11.9-1.7-4.1-.7-4.3-.6-3.2 1.4 2.1 4 16.2 22.3 26.8 34.9 33.8 40.2 75 77 117.2 104.7 17.8 11.6 21.6 13.7 36.2 19.9 25.4 10.8 75.6 23.9 112.1 29.3 1.6.2 4 .6 5.5.8 18.8 3.1 27.6 4.3 50.6 7.1 2 .3 5.4.7 7.5 1 3.5.4 8 .9 20.2 2.1 3 .3 7.1.7 9 .9 1.9.2 6.7.7 10.5 1 3.9.3 9 .8 11.5 1 8.8.9 19.6 1.7 24.5 2 9.3.5 25 1.6 30.5 2 3 .2 11.6.7 19 1 7.4.4 16.4.8 20 1 9.5.6 40.6 1.5 62.8 1.9 10.6.2 19.5.6 19.7.8.3.2-32.1 8.9-42.5 11.3-.8.2-9.6 2.5-19.5 5-9.9 2.6-18.8 4.8-19.7 5-.9.2-4.5 1.1-7.9 2.1l-6.2 1.8 3.6 1.2c4.1 1.4 20.9 5 27.2 5.8 3.8.5 8.6 1.1 17.8 2.1 25.4 2.7 105.5 2.7 158.2 0 11-.5 28.9-1.6 35-2 3.3-.2 11-.7 17-1 6.1-.3 12.6-.8 14.5-1 1.9-.3 7.8-.7 13-1 5.2-.3 11.3-.8 13.5-1 2.2-.2 7.8-.7 12.5-1 4.7-.3 10.5-.8 13-1 4.6-.4 13.2-1.2 23-2 18.5-1.6 30.9-2.7 33.5-3 1.7-.2 6.6-.7 11-1 4.4-.4 9.4-.8 11-1 5-.6 14.7-1.6 20-2.1 5.6-.4 13.3-1.2 18.5-1.9 1.9-.3 6.5-.7 10.2-1 3.7-.3 7.6-.8 8.7-1 1.1-.2 5.3-.6 9.3-.9 4-.4 8.2-.8 9.3-1 1.1-.2 5.2-.7 9-1 3.9-.4 8.1-.9 9.5-1.1 1.4-.2 5.2-.6 8.5-1 8.9-.9 29.9-3.3 34.5-4 1.4-.2 5-.7 8-1 3-.3 6.3-.9 7.4-1.2 1.6-.4 1.7-.1 1.1 2.9-4.6 21.6-19.3 41.4-38.8 51.9-7.2 3.9-16.5 7.9-18.4 7.9-.7 0-1.3.5-1.3 1 0 .9 37 .6 48.5-.4 2.2-.2 8-.7 12.9-1.1 4.9-.4 9.7-.8 10.5-1 .9-.2 4.5-.6 8.1-.9 6.4-.7 19.6-2.3 25.5-3.1 38.3-5.3 48-6.7 48.5-7 .3-.1 3.2-.6 6.5-.9 3.3-.4 6.7-.9 7.5-1.1.8-.2 2.9-.6 4.5-.9 5.4-.9 33.8-5.7 42-7.1 8-1.4 14.6-2.7 35-6.4 6.1-1.2 12.4-2.3 14-2.6 1.7-.3 5.3-1 8.1-1.6 2.8-.5 6.4-1.2 8-1.5 1.6-.3 14.2-2.8 27.9-5.6 13.8-2.7 25.9-5.2 27-5.4 1.1-.2 2.9-.6 4-.8 4.2-.9 27.1-5.7 29-6.1 1.1-.2 6.5-1.3 12-2.5s11.1-2.4 12.5-2.6c3.6-.7 24.7-5.3 29.5-6.4 2.2-.5 9.4-2.1 16-3.5 18.2-3.9 60.2-13.4 67-15.1 3.3-.8 7.1-1.7 8.4-2 1.2-.3 5.3-1.2 9-2 3.6-.9 7.5-1.8 8.6-2 1.1-.3 8.1-2 15.5-3.9 13.1-3.3 13-3.5-1-2-17.8 1.9-32.1 2.5-65 2.5-25.2.1-32.4-.1-57-1.5-10.4-.6-13.6-.9-26-2-3.6-.3-9-.8-12-1.1-5.7-.5-21.9-2.2-28-2.9-6.3-.8-20.4-2.6-23.5-3-1.6-.2-5.2-.7-8-1.1-2.7-.3-5.7-.7-6.5-.9-.8-.2-5.1-.8-9.5-1.5-4.4-.6-9.1-1.3-10.5-1.6-4.3-.7-21.4-3.6-23.5-3.9-2.5-.4-15.8-2.8-29.5-5.4-11.2-2.1-28.4-5.7-44-9.1-5.2-1.2-12.5-2.8-16.3-3.6-18-3.9-81.7-20.4-92.1-23.8-3.2-1.1 10.3-1.3 81-1.4 46.7 0 86.1-.1 87.5-.1 2.4-.1 3-1.2 8.8-17.4 3.4-9.4 6.6-18.1 7.1-19.2 1.3-3.2 11.3-33.4 17-51.5 8.1-26.1 21.8-75.5 27-98 3.1-13.3 10.9-47.4 11.4-50 .2-1.4 1.6-8.1 3-15 1.5-6.9 2.9-13.6 3.1-15 .3-1.4.7-3.6 1-5 .3-1.4.8-4.1 1.2-6 .4-1.9.8-3.7.8-4 .1-.3.5-2.8 1-5.5 1-6.3 1.2-7.8 2.5-14 1.1-5.5 1.5-8.1 3-17 .5-3.3 1.2-7.1 1.5-8.5.5-2.8 3.4-21 4-25 .6-4.1 1.3-8.6 3.9-27 2.6-18.2 4.2-30.3 5.1-38 .3-2.5.7-6.1 1-8 1.1-8 1.7-12.7 2-16.5.5-5.9 1.7-15.7 2.1-17.8.2-1 .6-4.8.9-8.5.3-3.7.8-8.3 1-10.2.3-1.9.7-6.4 1.1-10 .3-3.6.7-8.1.9-10 .1-1.9.6-6.9 1-11 .3-4.1.8-9.5 1-12 .4-4.5 1.1-13 2-24.5.2-3.3.7-8.9 1-12.5.3-3.6.8-10.6 1-15.5.3-5 .7-11.9 1-15.5.4-6.1.8-13.2 2-36.5 3.9-75 4.7-174.2 2-258-.3-11.6-.8-23.9-1-27.5-.2-3.6-.6-13.5-1-22s-.8-17.5-1.1-20c-.2-2.5-.6-9.7-1-16-.3-6.3-.7-12.6-.9-14-.2-1.4-.4-4.9-.4-7.8-.1-2.9-.6-5.2-1.2-5.2-.5 0-.8.4-.5.8z"/><path d="M1114.4 523.7c-2.8 3.8-6.5 9-8.4 11.8-1.9 2.7-3.6 5.2-4 5.5-.3.3-3.9 5.2-8 11s-8.3 11.7-9.5 13.1c-1.1 1.4-2.7 3.6-3.5 4.9-.8 1.2-3.7 5.3-6.5 9.1-8.2 11.3-19.6 27-67.4 93.4-5.9 8.2-15.6 21.7-21.6 30-5.9 8.2-15.2 21.1-20.5 28.5-5.3 7.4-14.6 20.3-20.6 28.6-6 8.4-20.1 27.9-31.3 43.5-11.2 15.6-22.1 30.6-24.1 33.4-4.1 5.5-33.7 46.6-38.2 53-1.5 2.2-7.4 10.4-13 18.2-5.7 7.8-11 15.1-11.8 16.3-.8 1.2-3.6 5-6.1 8.4-2.5 3.3-8.9 12.2-14.2 19.6-5.3 7.4-15.5 21.6-22.7 31.5-7.1 9.9-18.2 25.2-24.5 34-6.3 8.8-12.1 16.8-12.8 17.7-.9 1.2-2.4 1.6-4.8 1.3-7.1-.7-15.1-1.6-16.7-2-1-.2-4.5-.6-7.7-1-3.3-.4-7.1-.8-8.5-1-1.4-.2-4.7-.7-7.5-1-6.6-.8-12.3-1.5-16-2.1-1.6-.2-12.2-1.5-23.5-2.9s-21.6-2.8-23-3c-1.4-.2-5-.7-8-1-3-.3-6.6-.8-8-1-1.4-.2-5-.7-8-1-10.6-1.3-12.5-1.5-16.5-2-2.2-.3-5.7-.8-7.7-1-10-1.3-12.5-1.6-14.8-2-1.4-.2-5.4-.7-9-1-3.6-.4-7.2-.8-8-1-1.4-.4-3.9-.8-15.5-2.1-2.7-.3-6.1-.7-7.5-.9-1.4-.2-5-.7-8-1-3-.3-5.6-.8-5.8-.9-.1-.2 4.1-4.1 9.5-8.7s10.9-9.3 12.3-10.5c4.3-3.8 26.3-22.7 32.4-27.9 3.3-2.8 6.5-5.5 7.1-6.2.7-.7 5-4.4 9.6-8.4 4.6-3.9 11.3-9.7 14.9-12.9 3.6-3.1 16-13.9 27.5-24 11.6-10.1 23.3-20.4 26-22.9 2.8-2.5 8.2-7.3 11.9-10.6 3.8-3.3 7.4-6.5 8-7 .6-.6 4.4-3.9 8.5-7.5s8.2-7.2 9.1-8c1-.8 3.5-3.1 5.6-5 2.1-2 10-8.9 17.4-15.5 7.4-6.6 14.5-12.9 15.6-14 1.2-1.1 3.7-3.4 5.5-5 1.9-1.7 7.4-6.6 12.3-11 5-4.4 9.7-8.7 10.6-9.5.9-.8 5.9-5.3 11-10 9.1-8.2 17.1-15.5 25.5-23.2 2.2-2 5.1-4.6 6.4-5.7 1.3-1.2 7.2-6.5 13-12 5.8-5.4 11.8-10.9 13.2-12.2 2.9-2.6 20.2-18.6 25.3-23.3 4.9-4.5 29.3-27.4 37.6-35.2 4.1-3.9 9.5-9 12-11.3 4.4-4.2 31.6-30.2 47.4-45.4 18-17.4 50.7-49.9 50.4-50.2-.2-.2-3.9 3.1-8.3 7.3-8.8 8.4-27.5 25.8-31.5 29.2-2.1 1.8-16 14.3-19.4 17.5-.6.5-6.9 6.1-14.1 12.4-7.1 6.2-15.7 13.7-19 16.6-3.3 2.9-7.6 6.5-9.5 8.1-1.9 1.6-3.7 3.1-4 3.4-2.3 2.5-54.6 46-73.5 61.2-3.3 2.7-7.3 5.9-9 7.3-73.3 59.3-167.2 126.7-239 171.4-5.5 3.4-10.7 6.6-11.5 7.1-4.8 3.1-35.2 21-39 23.1-2.5 1.3-4.7 2.6-5 2.9-.6.6-1 .8-15.2 8.6-5.7 3.1-12.3 6.8-14.8 8.2-13.3 7.5-44.3 23.2-67 34-41.7 19.9-91.4 38.8-130.9 49.8-9.1 2.6-17.2 5-18 5.4-.8.4 1 1 4.5 1.5 3.2.4 6.7.9 7.9 1.1 1.1.2 3.8.6 6 .9 2.2.3 5.1.7 6.5 1 1.4.2 4.1.7 6 1 1.9.3 4.6.7 6 1 3 .5 9.2 1.4 14 2.1 1.9.2 7.3 1.1 12 1.9 4.7.7 10.3 1.7 12.5 2 2.2.3 5.1.8 6.5 1 6.1 1 21.8 3.5 25 3.9 4.1.5 8.3 1.2 20 3.1 10.9 1.8 15.7 2.5 20 3.1 1.9.2 4.6.6 6 .9 4 .7 23 3.8 31.5 5 1.7.3 4.4.7 6 .9 1.7.3 4.6.8 6.5 1.1 1.9.3 4.9.7 6.5.9 4.2.6 9.6 1.5 19.5 3.1 4.7.8 11.7 1.9 15.5 2.5 3.9.5 7.9 1.2 9 1.4 2 .4 9.6 1.5 14.5 2.2 1.4.1 5.2.7 8.5 1.3 7.7 1.3 31.1 5 35 5.6 3.7.5 7.9 1.1 22.5 3.5 6.3 1 13.5 2.1 16 2.5 2.5.3 8.3 1.2 13 2 4.7.8 10.3 1.7 12.5 2 2.2.2 5.1.7 6.5.9 2.4.4 11.3 1.8 44 7 8.5 1.4 17.5 2.7 20 3.1 2.5.3 9.9 1.5 16.5 2.5 19.2 3.1 36.7 5.8 41 6.4l4 .6 6-10.7c3.3-5.9 7.4-13.2 9.1-16.2 7.2-13 9.1-16.2 15.9-28.1 3.9-6.9 8.7-15.2 10.5-18.5 1.8-3.3 5-8.9 7-12.5 3.2-5.5 24-42.2 31.5-55.5 1.3-2.2 7.8-13.7 14.5-25.5s13.6-24 15.2-27c2.8-5 10.5-18.5 13.5-23.5.7-1.1 1.5-2.6 1.9-3.4.4-.8 3.2-5.8 6.2-11 3-5.3 7.3-13 9.7-17.1 2.3-4.1 5.2-9.3 6.4-11.5 6.5-11.4 62.2-109.6 64.1-113 1.2-2.2 6-10.6 10.6-18.8 14.7-25.8 24.8-43.6 37.8-66.7 7-12.4 13.1-23.2 13.6-24 .5-.8 5.4-9.4 10.8-19 5.5-9.6 11-19.3 12.3-21.5 6.8-11.9 14.5-25.7 17.2-30.5 1.7-3 4.1-7.2 5.4-9.2 1.3-2.1 2.3-4 2.3-4.3 0-.2 1.6-2.9 3.5-5.9 1.9-3 3.5-5.8 3.5-6.2 0-.3 2.5-4.9 5.6-10.2 7.1-12.1 6.6-11.2 6.1-11.2-.2 0-2.6 3-5.3 6.7z"/></svg>